<?xml version="1.0" encoding="utf-8"?>
<!-- Generator: Adobe Illustrator 19.1.0, SVG Export Plug-In . SVG Version: 6.00 Build 0)  -->
<svg version="1.1" id="Layer_1" xmlns="http://www.w3.org/2000/svg" xmlns:xlink="http://www.w3.org/1999/xlink" x="0px" y="0px"
	 viewBox="0 0 209.6 119.7" style="enable-background:new 0 0 209.6 119.7;" xml:space="preserve">
<style type="text/css">
	.st0{fill:#FFFFFF;stroke:#FFFFFF;stroke-miterlimit:10;}
	.st1{fill:#3A3A3A;}
</style>
<g>
	<path class="st0" d="M2.6,13.3l27,98.2c0,0,27.4-18.6,75.3,5.8c0,0,42.2-23.2,75.6-5.5L207,13.3c0,0-48.4-26.2-102.1,2
		C104.9,15.3,63.1-12.8,2.6,13.3z"/>
	<g>
		<path class="st1" d="M43.1,68.4l-4.5-0.2h-5.4c-0.3,0-0.4-0.3-0.4-1s0.2-1.1,0.5-1.5c0.1-0.1,0.3-0.1,0.6-0.1
			c1.5,0,2.3-0.2,2.3-0.8V44c0-0.2-0.1-0.3-0.2-0.3H33c-0.3,0-0.6-0.3-0.7-1c0-0.2,0-0.3,0-0.5c0-0.7,0.2-1.1,0.5-1.1H42
			c6.5,0,9.7,2.2,9.7,6.6c0,1.4-0.5,2.6-1.4,3.6c-1,1.1-2.1,1.8-3.5,2.2c2,0.3,3.6,1,4.8,2.2c1.2,1.2,1.8,2.7,1.8,4.5
			c0,3.8-1.9,6.3-5.7,7.4C46.4,68.2,44.9,68.4,43.1,68.4z M42.7,52.3c3.2,0,4.8-1.4,4.8-4.2c0-1.7-0.7-2.8-2-3.4
			c-1-0.5-2.9-0.7-5.6-0.7v8.3H42.7z M40,62.9c0,0.9,0.2,1.6,0.7,2.1c0.5,0.4,1.3,0.7,2.4,0.7c2.2,0,3.8-0.4,4.8-1.1
			c0.9-0.8,1.4-2.1,1.4-3.9c0-1.8-0.8-3.3-2.4-4.2c-1.4-0.8-3-1.3-4.9-1.3c-0.6,0-1.3,0-1.9,0V62.9z"/>
		<path class="st1" d="M65.1,68.6c-2.6,0-4.5-0.9-5.9-2.7c-1.4-1.8-2.1-4.1-2.1-7s0.9-5.1,2.6-6.7c1.7-1.6,3.9-2.4,6.4-2.4h0.1
			c2.3,0,4.2,0.9,5.6,2.6c1.4,1.7,2.1,4,2.1,6.9c0,2.9-0.8,5.1-2.4,6.7S67.7,68.6,65.1,68.6z M65.6,52.6c-2.1,0-3.6,1.1-4.3,3.2
			c-0.3,0.8-0.4,1.9-0.4,3.1c0,2.3,0.4,4,1.3,5.1c0.8,1.2,2,1.7,3.5,1.7s2.6-0.6,3.4-1.9c0.8-1.3,1.2-2.9,1.2-4.8
			c0-3.2-1-5.3-2.9-6.1C66.8,52.8,66.2,52.6,65.6,52.6z"/>
		<path class="st1" d="M76.9,42.9c-0.4,0-0.7-0.5-0.7-1.4c0-0.6,0.2-0.9,0.5-1c1.1-0.4,3.1-0.6,6.1-0.7c0.5,0,0.8,0.5,0.8,1.5
			c0,0.3,0,0.6,0,0.9v23.4h1.9c0.3,0,0.5,0.3,0.5,1c0,0.7-0.1,1.1-0.3,1.3s-0.3,0.3-0.5,0.3h-8c-0.3,0-0.5-0.3-0.5-1
			s0.1-1.1,0.3-1.3c0.2-0.2,0.3-0.3,0.4-0.3h0.2c1.4,0,2.2-0.1,2.4-0.4C80,65.2,80,65,80,64.9v-22H76.9z M97,65.7
			c0.3,0,0.5,0.3,0.5,1s-0.1,1.1-0.3,1.3c-0.2,0.2-0.3,0.3-0.5,0.3H92l-8.3-10.8l7.2-7.2h3.8c0.3,0,0.6,0.3,0.7,0.9
			c0,0.2,0,0.3,0,0.5c0,0.7-0.2,1.1-0.5,1.1c-1.2,0-1.9,0.1-2.4,0.3c-0.4,0.2-0.7,0.4-0.9,0.5l-3.9,4l6.3,6.9
			C94.8,65.3,95.8,65.7,97,65.7z"/>
		<path class="st1" d="M100,53c0-1.8,0.2-2.8,0.7-2.8h0.3c1.4,0,2.2-0.1,2.4-0.4c0.1-0.1,0.1-0.2,0.1-0.4v-2.2
			c0-3.5,1.1-5.8,3.2-6.9c0.8-0.4,1.8-0.6,2.9-0.6c1.1,0,2,0.2,2.7,0.6c0.8,0.5,1.3,1.3,1.3,2.4c0,0.7-0.2,1.3-0.7,1.8
			c-0.5,0.5-1.1,0.7-1.8,0.7c-1.1,0-1.9-0.5-2.3-1.5c-0.1-0.3-0.2-0.6-0.2-1v-0.6h0c-1,0-1.5,1-1.6,3c0,0.6,0,1.1,0,1.7v3.3h4.8
			c0.3,0,0.4,0.4,0.4,1c0,0.7-0.1,1.2-0.4,1.6c-0.1,0.1-0.2,0.2-0.4,0.2h-4.5v12.7h4.1c0.3,0,0.5,0.3,0.5,1s-0.1,1.1-0.3,1.3
			c-0.2,0.2-0.3,0.3-0.5,0.3h-10.2c-0.3,0-0.5-0.3-0.5-1s0.1-1.1,0.3-1.3c0.2-0.2,0.3-0.3,0.4-0.3h0.2c1.4,0,2.2-0.1,2.4-0.4
			c0.1-0.1,0.1-0.2,0.1-0.4V53H100z"/>
		<path class="st1" d="M117.1,70.5c1.7,0,2.6,1,2.6,2.9c0.4,0,0.7-0.2,1-0.6c0.3-0.4,0.5-0.9,0.7-1.4c0.2-0.5,0.4-1,0.5-1.4
			c0.1-0.4,0.3-0.8,0.4-1.2c0.1-0.3,0.2-0.6,0.2-0.7l-6-15.3h-2c-0.3,0-0.5-0.3-0.5-1c0-0.7,0.1-1.1,0.3-1.3
			c0.2-0.2,0.3-0.3,0.4-0.3h7.8c0.3,0,0.4,0.3,0.4,1c0,0.6-0.1,1.1-0.3,1.3c-0.2,0.2-0.3,0.3-0.5,0.3c-1.1,0-1.6,0.3-1.6,0.8
			l3.6,10.7l4.3-11.4h-2.4c-0.3,0-0.5-0.3-0.5-1s0.1-1.1,0.2-1.3c0.2-0.2,0.3-0.3,0.4-0.3h6.7c0.3,0,0.4,0.3,0.4,1
			c0,1-0.3,1.5-0.9,1.5c-0.5,0-0.8,0.1-1,0.2s-0.3,0.3-0.5,0.6l-7.6,19.3c-0.4,1-1,1.8-1.9,2.4c-0.9,0.6-1.9,0.9-3.2,0.9
			c-1.7,0-2.8-0.6-3.5-1.7c-0.2-0.4-0.4-0.9-0.4-1.6c0-0.7,0.2-1.2,0.7-1.7C116,70.7,116.5,70.5,117.1,70.5L117.1,70.5z"/>
		<path class="st1" d="M136,53c-0.5,0-0.7-0.5-0.7-1.4c0-0.6,0.2-0.9,0.5-1c0.7-0.3,1.6-0.4,2.7-0.6c1.1-0.1,1.8-0.2,2.1-0.2h0.4
			c0.5,0,0.9,0.1,1,0.3c0.2,0.2,0.3,0.7,0.3,1.7v0.3c1.8-1,3.5-1.7,4.9-2.1c0.5-0.1,1.1-0.2,1.8-0.2s1.5,0.2,2.2,0.5
			s1.3,0.8,1.8,1.4c0.8,1.1,1.1,2.7,1.1,5v8.9h2.8c0.3,0,0.5,0.3,0.5,1s-0.1,1.1-0.3,1.3c-0.2,0.2-0.3,0.3-0.5,0.3h-8.2
			c-0.3,0-0.5-0.3-0.5-1s0.1-1.1,0.3-1.3c0.2-0.2,0.3-0.3,0.5-0.3c1.2,0,1.9-0.3,1.9-0.8v-5.3c0-2.3-0.1-3.8-0.4-4.6
			c-0.3-0.7-0.6-1.2-1-1.5c-0.4-0.3-1-0.5-1.7-0.5c-1.3,0-3,0.8-4.9,2.3v10.4h3c0.3,0,0.5,0.3,0.5,1s-0.1,1.1-0.3,1.3
			c-0.2,0.2-0.3,0.3-0.5,0.3h-9.1c-0.3,0-0.5-0.3-0.5-1s0.1-1.1,0.3-1.3c0.2-0.2,0.3-0.3,0.4-0.3h0.2c1.4,0,2.2-0.1,2.4-0.4
			c0.1-0.1,0.1-0.2,0.1-0.4V53H136z"/>
		<path class="st1" d="M169.1,42.9c-0.5,0-0.7-0.5-0.7-1.4c0-0.6,0.2-0.9,0.5-1c1.1-0.4,3.1-0.6,6.1-0.7h0c0.5,0,0.8,0.5,0.8,1.5
			v24.3h3c0.3,0,0.5,0.3,0.5,1s-0.1,1.1-0.3,1.3c-0.2,0.2-0.3,0.3-0.4,0.3s-0.3,0-0.5,0c-1.3,0.2-2.4,0.3-3.3,0.3s-1.4-0.1-1.7-0.3
			c-0.2-0.2-0.5-0.6-0.7-1.2c-1.5,1.1-3.3,1.6-5.4,1.6c-2.1,0-3.8-0.9-5.1-2.6c-1.2-1.7-1.8-4-1.8-7c0-2.9,0.9-5.2,2.6-6.8
			c1.7-1.6,3.8-2.4,6.4-2.4c1.2,0,2.3,0.1,3.2,0.4v-7.3H169.1z M167.8,65.8c1.5,0,3-0.6,4.5-1.8V53.8c-1-0.8-2.1-1.2-3.4-1.2
			c-2.2,0-3.8,1.1-4.6,3.2c-0.3,0.8-0.5,1.9-0.5,3.1c0,2.3,0.4,4,1.3,5.3C165.9,65.3,166.8,65.8,167.8,65.8z"/>
	</g>
</g>
<g>
</g>
<g>
</g>
<g>
</g>
<g>
</g>
<g>
</g>
<g>
</g>
<g>
</g>
<g>
</g>
<g>
</g>
<g>
</g>
<g>
</g>
<g>
</g>
<g>
</g>
<g>
</g>
<g>
</g>
</svg>
